<svg width="252" height="44" viewBox="0 0 252 44" fill="none" xmlns="http://www.w3.org/2000/svg">
<path fill-rule="evenodd" clip-rule="evenodd" d="M36.8469 18.2116L43.154 30.1163C43.9161 30.9047 46.0396 32.4815 48.4363 32.4815C50.833 32.4815 52.5885 30.9047 53.1667 30.1163L48.4363 21.7593L42.1291 2.91668C41.9977 2.10201 40.8677 0.472656 37.3987 0.472656C34.5276 0.472656 32.9526 3.11908 31.8246 5.01461C31.5897 5.40927 31.3742 5.77137 31.1704 6.07026L26.6766 14.1119V18.8423L28.8052 22.3112L32.826 21.7593L36.8469 18.2116ZM1.60556 30.9047C0.528088 30.09 -1.09075 27.4358 1.05368 23.3361C3.19812 19.2365 6.625 12.3249 8.07039 9.38153L12.0912 1.81293L17.8465 3.5474L26.913 21.6017L31.0127 28.1453L30.7762 30.1163C30.4871 30.8259 29.4359 32.2292 27.5438 32.1662C25.6516 32.1031 24.9158 31.9822 24.7844 31.9296C24.1537 31.6931 22.4192 30.2109 20.527 26.1743L15.9543 18.2116L8.85879 26.9627L5.07449 30.1952L1.60556 30.9047Z" fill="#DEFDEF"/>
<path fill-rule="evenodd" clip-rule="evenodd" d="M14.6491 0.081551C13.8744 0.255162 13.2638 0.61474 12.4419 1.38139L11.7324 2.04309L12.3631 2.01453C13.6404 1.95693 13.6087 1.9165 16.4719 7.24227C16.709 7.68352 17.1764 8.53842 17.5104 9.14204C17.8445 9.74551 18.1177 10.2659 18.1177 10.2983C18.1177 10.3305 18.3397 10.7392 18.611 11.2064C18.8825 11.6737 19.4253 12.6696 19.8174 13.4197C20.2095 14.1698 20.697 15.053 20.9007 15.3821C21.1042 15.7113 21.2709 16.0122 21.2709 16.0507C21.2709 16.089 21.6611 16.8218 22.138 17.679C22.615 18.5359 23.0052 19.258 23.0052 19.2835C23.0052 19.3089 23.3954 20.0309 23.8723 20.888C24.3492 21.745 24.7394 22.4666 24.7394 22.4916C24.7394 22.5165 25.0127 23.0307 25.3467 23.6342C26.058 24.9194 26.6124 25.9373 27.3872 27.3792C28.9523 30.2925 29.0013 30.3511 29.8603 30.3323C30.2454 30.324 30.668 30.2264 30.7993 30.1154C31.0024 29.9439 32.0491 28.1707 33.413 25.6874C33.6047 25.3382 34.0277 24.5833 34.353 24.0097C34.6781 23.436 35.1397 22.6057 35.3785 22.1644C35.6176 21.7232 36.124 20.8136 36.5039 20.143C36.8837 19.4725 37.1946 18.8788 37.1946 18.824C37.1946 18.7689 37.4962 18.1984 37.8647 17.5561C38.2333 16.9136 38.6412 16.1752 38.7712 15.9149C38.9013 15.6548 39.2628 15.1674 39.5745 14.8319C40.068 14.3009 40.2334 14.222 40.8532 14.222C41.8508 14.222 42.3194 14.7656 43.7636 17.5992C45.5062 21.0185 47.1375 24.2 48.0789 26.0153C48.5366 26.8978 49.1879 28.171 49.5264 28.8444C50.3656 30.5144 50.6978 30.8084 51.719 30.7846C52.9472 30.7562 53.3845 30.2539 53.8461 28.3419C54.018 27.6298 54.0232 27.2115 53.8728 26.1758C53.7068 25.0322 53.4859 24.4894 51.8489 21.2017C50.8383 19.172 49.6733 16.8615 49.26 16.0672C46.6934 11.1349 45.9156 9.62933 44.3698 6.60045C42.1865 2.3226 42.2157 2.36159 41.203 2.35357C40.731 2.34972 40.4696 2.44696 40.2176 2.71973C40.0291 2.92399 39.8749 3.14413 39.8749 3.20879C39.8749 3.27361 39.6436 3.70218 39.3611 4.16124C39.0784 4.62029 38.7414 5.21253 38.6123 5.47728C38.4832 5.74203 38.3378 5.99474 38.2891 6.03887C38.201 6.11893 37.7411 6.93259 36.8382 8.60612C36.5765 9.09149 36.2834 9.59692 36.1872 9.7293C36.009 9.97447 35.8894 10.1827 35.181 11.4816C34.9606 11.8858 34.5076 12.6749 34.1743 13.2355C33.8412 13.7962 33.5684 14.287 33.5684 14.3263C33.5684 14.3656 33.3346 14.7735 33.0489 15.2325C32.7631 15.6916 32.4134 16.3199 32.2718 16.629C32.1303 16.9378 31.7741 17.4734 31.4807 17.819C31.0678 18.3051 30.833 18.4472 30.4439 18.4472C29.3654 18.4472 29.149 18.1595 26.907 13.7406C26.3025 12.5493 25.6501 11.2857 25.4573 10.9327C24.4987 9.1783 23.4833 7.28334 22.5342 5.47728C20.578 1.7546 20.0664 1.1176 18.4592 0.404867C17.6978 0.067273 15.5325 -0.116449 14.6491 0.081551ZM72.6742 0.639123C71.717 0.863277 70.7364 1.86371 70.4876 2.86975C70.246 3.84595 70.2258 29.7361 70.466 30.6157C71.014 32.6241 73.4294 33.0677 74.6892 31.3912L75.2125 30.6951L75.1622 19.8911C75.1291 12.7561 75.1657 9.0915 75.2697 9.09952C75.3564 9.10626 76.5625 10.8504 77.95 12.9754C83.4492 21.3983 84.5362 22.9454 85.1817 23.268C85.7096 23.532 85.8596 23.5442 86.3897 23.3662C87.0924 23.1302 87.2248 22.9592 90.4052 18.1804C94.9523 11.3479 96.4266 9.18424 96.567 9.13642C96.6541 9.1069 96.6939 13.4173 96.6671 19.9582C96.6235 30.6314 96.6284 30.8384 96.9416 31.3518C97.7014 32.5978 99.328 32.9099 100.43 32.0214C100.811 31.7146 101.105 31.3063 101.21 30.9384C101.326 30.5329 101.364 26.02 101.331 16.5486L101.284 2.74957L100.921 2.10502C100.09 0.631258 98.4958 0.160174 96.8972 0.916391C96.4365 1.13445 95.5441 2.41454 87.7361 14.0591C86.7886 15.4724 85.9372 16.6274 85.8442 16.6254C85.7513 16.6237 85.3797 16.1723 85.0184 15.6226C84.657 15.0729 83.5573 13.4209 82.5746 11.9514C81.5919 10.482 79.8119 7.81043 78.6191 6.01464C77.4264 4.21884 76.1848 2.39257 75.86 1.95629C74.9263 0.701547 74.0155 0.324955 72.6742 0.639123ZM135.023 0.679403C133.868 1.32411 133.368 2.14514 133.368 3.39684C133.368 4.22317 133.531 4.62591 134.136 5.29099C134.757 5.97372 135.302 6.19932 136.332 6.19932C137.108 6.19932 137.366 6.1223 137.893 5.73432C138.971 4.93912 139.371 3.21136 138.751 2.02496C138.089 0.757381 136.142 0.0549178 135.023 0.679403ZM185.936 0.819956C184.497 1.54986 184.608 0.246655 184.608 16.4931C184.609 30.5149 184.616 30.8403 184.922 31.3518C185.376 32.1103 186.114 32.5126 187.051 32.5126C188.063 32.5126 188.747 32.0931 189.197 31.1962C189.541 30.5112 189.542 30.4761 189.453 23.7289C189.38 18.2223 189.402 16.9497 189.569 16.9497C189.682 16.9497 189.879 17.1122 190.007 17.3107C190.135 17.5092 190.657 18.1467 191.168 18.7272C192.002 19.6755 194.607 22.7986 199.442 28.6479C202.299 32.1034 202.754 32.5137 203.727 32.5137C205.233 32.5137 206.422 31.0335 206.049 29.623C205.825 28.778 205.928 28.9049 200.442 22.7188C199.147 21.2588 197.579 19.4898 196.957 18.7877C196.335 18.0857 195.572 17.2315 195.262 16.8894C194.952 16.5475 194.698 16.1993 194.698 16.1158C194.698 15.9313 194.049 16.6166 200.458 10.0298C203.579 6.82252 205.938 4.26939 206.095 3.92874C206.243 3.60655 206.365 3.03839 206.365 2.6663C206.365 2.09685 206.27 1.89323 205.766 1.3801C205.004 0.605274 204.286 0.445776 203.293 0.831346C202.68 1.06978 201.879 1.86531 197.985 6.10256C195.463 8.84744 192.574 12.0076 191.565 13.1253C190.557 14.2429 189.646 15.1634 189.541 15.1711C189.396 15.1815 189.34 13.6318 189.305 8.64624L189.258 2.10776L188.88 1.56751C188.518 1.05101 187.482 0.433901 186.964 0.42652C186.829 0.424595 186.367 0.60174 185.936 0.819956ZM113.739 9.00533C110.772 9.63447 108.455 11.1313 106.808 13.4849C105.336 15.5865 104.673 17.8632 104.673 20.8202C104.673 25.472 106.949 29.4529 110.707 31.375C112.693 32.3911 113.525 32.5703 116.262 32.5716C118.399 32.5726 118.748 32.5318 119.888 32.1477C121.43 31.628 122.334 31.0552 123.323 29.9716C123.739 29.5166 124.137 29.1442 124.208 29.1442C124.279 29.1442 124.377 29.5389 124.426 30.0215C124.596 31.6965 125.429 32.5137 126.968 32.5137C127.79 32.5137 127.915 32.4633 128.526 31.8833L129.19 31.253V20.9323V10.6118L128.823 10.0879C128.341 9.40037 127.716 9.08748 126.825 9.08748C125.409 9.08748 124.381 10.1117 124.381 11.522C124.381 12.342 124.12 12.6842 123.865 12.1987C123.331 11.1837 121.546 9.92168 119.73 9.27601C118.232 8.74363 115.546 8.62232 113.739 9.00533ZM152.445 8.93024C149.44 9.43647 147.512 10.3268 145.71 12.0389C143.487 14.1522 142.502 16.1439 142.032 19.4768C141.722 21.6722 142.196 24.2072 143.336 26.4561C144.758 29.2624 147.709 31.567 150.868 32.3394C153.847 33.0676 157.526 32.6966 159.934 31.425C162.675 29.9776 164.677 27.5459 165.645 24.491C166.035 23.2594 166.076 22.9016 166.074 20.8006C166.071 18.3808 165.983 17.8627 165.256 15.987C163.963 12.6526 160.852 10.0117 157.253 9.19387C155.826 8.86959 153.546 8.7446 152.445 8.93024ZM215.982 9.01239C213.78 9.39844 212.819 9.76941 211.299 10.8199C206.949 13.8266 205.216 20.0973 207.231 25.5478C208.183 28.1246 210.123 30.2738 212.551 31.4428C215.661 32.9402 218.782 33.1496 222.052 32.0805C224.076 31.4188 226.188 29.9052 227.357 28.2777C228.679 26.4375 226.775 24.019 224.816 25.05C224.567 25.1811 224.092 25.6248 223.761 26.0362C222.982 27.0031 221.759 27.9169 220.779 28.2641C219.726 28.637 217.304 28.7649 216.34 28.4987C214.722 28.052 213.238 27.0105 212.382 25.7201C211.755 24.7763 211.221 23.3311 211.28 22.7422L211.331 22.2418L219.529 22.2031C227.465 22.1657 227.745 22.154 228.28 21.8365C228.583 21.6561 228.97 21.2489 229.138 20.9317C229.424 20.3951 229.432 20.2615 229.244 19.0133C228.789 15.9817 227.852 13.952 226.071 12.1395C224.197 10.2325 222.703 9.47947 219.876 9.0164C218.116 8.72823 217.605 8.72758 215.982 9.01239ZM134.825 9.40759C134.542 9.58296 134.17 9.96164 133.998 10.2493C133.693 10.7581 133.684 11.0856 133.678 22.3249C133.67 36.7246 133.714 36.4071 131.502 38.1296C130.047 39.2633 129.829 39.5935 129.843 40.6367C129.858 41.6868 130.318 42.3845 131.28 42.8177C132.156 43.2121 132.786 43.1144 134.077 42.3837C135.76 41.4314 137.466 39.3837 137.998 37.6782C138.557 35.8879 138.593 34.8757 138.542 22.6976C138.492 10.8311 138.489 10.711 138.162 10.2625C137.321 9.10802 135.896 8.74283 134.825 9.40759ZM170.826 9.45107C170.462 9.66287 170.075 10.0722 169.88 10.4513C169.557 11.0818 169.551 11.2669 169.551 20.8808C169.551 30.4653 169.558 30.6802 169.875 31.2296C170.053 31.5381 170.443 31.9597 170.742 32.1663C171.771 32.8782 173.545 32.4474 174.157 31.3369C174.297 31.0825 174.352 29.3577 174.36 24.8922C174.373 18.2022 174.481 17.0269 175.195 15.7872C175.941 14.4911 177.666 13.5802 179.375 13.5802C181.065 13.5802 182.134 12.9376 182.393 11.7658C182.57 10.9682 182.431 10.4273 181.914 9.90098C181.368 9.34485 180.698 9.20317 179.296 9.34742C177.49 9.53306 175.992 10.4258 175.145 11.82C174.581 12.7481 174.36 12.6516 174.36 11.4789C174.36 10.7541 174.277 10.3828 174.04 10.0446C173.356 9.06679 171.938 8.80492 170.826 9.45107ZM231.417 9.44979C231.122 9.64907 230.717 10.1365 230.516 10.5328C230.087 11.3805 230.115 12.1597 230.613 13.2593C230.793 13.6564 231.697 15.7864 232.621 17.9927C233.546 20.1989 234.393 22.2206 234.504 22.4854C234.615 22.7501 234.892 23.3839 235.119 23.8936C235.346 24.4036 235.532 24.8556 235.532 24.8983C235.532 24.973 235.772 25.5362 236.575 27.3434C236.782 27.8092 236.951 28.2222 236.951 28.2614C236.951 28.3003 237.121 28.7137 237.328 29.1795C237.535 29.6454 237.93 30.568 238.205 31.2297L238.704 32.4327L238.288 33.5563C237.761 34.9757 237.695 35.1467 237.291 36.1239C235.732 39.8982 235.555 40.791 236.187 41.6952C237.169 43.0977 239.51 43.0057 240.241 41.5358C240.405 41.2067 241.123 39.4573 241.837 37.6482C242.55 35.8391 243.257 34.0701 243.406 33.7171C243.555 33.3641 243.876 32.5699 244.119 31.9521C244.362 31.3344 244.652 30.6123 244.763 30.3476C244.875 30.0828 245.188 29.2886 245.459 28.5826C245.731 27.8766 246.05 27.0823 246.169 26.8176C246.288 26.5528 246.606 25.7586 246.876 25.0526C247.145 24.3466 247.428 23.6246 247.503 23.4481C247.578 23.2716 248.622 20.6722 249.824 17.6717C251.664 13.0749 252.006 12.0884 252 11.4038C251.986 9.94767 251.062 9.08283 249.532 9.09309C248.199 9.10224 247.689 9.54702 247.056 11.2536C246.859 11.7831 246.633 12.3834 246.553 12.5875C246.473 12.7916 246.155 13.658 245.846 14.5129C245.537 15.3678 245.193 16.2838 245.082 16.5486C244.873 17.0476 244.442 18.2072 243.874 19.7978C243.693 20.3053 243.377 21.1536 243.171 21.6831C242.966 22.2126 242.465 23.6748 242.059 24.9323C241.652 26.1897 241.271 27.2187 241.213 27.2187C241.154 27.2187 240.884 26.5147 240.614 25.6543C239.898 23.381 239.027 20.9352 237.495 16.9027C235.062 10.5004 234.917 10.1649 234.342 9.60896C233.859 9.14236 233.705 9.08748 232.877 9.08748C232.18 9.08748 231.82 9.17686 231.417 9.44979ZM220.081 13.1197C222.311 13.8988 224.082 15.9658 224.43 18.1932L224.536 18.8751H217.894C210.396 18.8751 211.048 19.0093 211.482 17.5546C211.826 16.3994 212.44 15.449 213.465 14.4832C215.237 12.8139 217.734 12.2993 220.081 13.1197ZM118.322 13.4332C120.957 13.9231 123.237 15.9758 123.999 18.5437C124.559 20.4325 124.375 22.7621 123.531 24.4573C123.309 24.9019 122.727 25.7071 122.236 26.2464C119.455 29.3033 114.691 29.3088 111.758 26.2583C110.248 24.6876 109.454 22.3604 109.643 20.0556C109.9 16.9229 112.154 14.2589 115.179 13.5138C116.329 13.2304 117.122 13.2102 118.322 13.4332ZM156.212 13.5768C157.268 13.8992 158.863 14.8505 159.489 15.5324C160.066 16.1612 160.936 17.7504 161.19 18.6419C161.893 21.1024 161.115 24.1645 159.323 25.9882C158.255 27.0753 156.566 27.9494 155.088 28.181C153.132 28.4873 150.762 27.7161 149.244 26.2801C146.799 23.9673 146.128 20.5315 147.516 17.4421C148.252 15.8049 150.222 14.0782 152.006 13.5073C153.045 13.1744 154.997 13.2066 156.212 13.5768ZM12.3303 14.4657C11.8637 14.6655 11.6774 14.9466 10.3132 17.5113C9.98459 18.129 9.47771 19.0536 9.18682 19.5657C8.89594 20.0779 8.65803 20.5227 8.65803 20.5541C8.65803 20.5856 8.38465 21.1053 8.05056 21.7088C7.43695 22.8173 6.72211 24.1302 6.01122 25.4537C5.7979 25.8509 5.49977 26.3924 5.34857 26.6571C5.02363 27.2263 4.12512 28.8918 3.82919 29.4733C3.47761 30.1645 2.88906 30.6099 2.20355 30.7036C1.83809 30.7535 1.57638 30.8687 1.60807 30.9658C1.63928 31.0611 2.20686 31.4252 2.86935 31.7746C3.92316 32.3308 4.23706 32.4187 5.38042 32.4789C6.52503 32.539 6.79921 32.497 7.5894 32.1403C8.69634 31.6407 9.66895 30.6446 10.3745 29.2883C11.1193 27.8564 11.8007 26.5827 12.1255 26.0153C12.277 25.7506 12.7919 24.7758 13.2698 23.8492C14.4721 21.5175 15.2394 20.0526 15.7297 19.1526L16.1469 18.387L15.3862 16.9062C14.9678 16.0918 14.4497 15.2184 14.2348 14.9654C13.7527 14.3975 12.9696 14.1921 12.3303 14.4657Z" fill="#6900FF"/>
</svg>
