<svg width="105" height="105" viewBox="0 0 105 105" fill="none" xmlns="http://www.w3.org/2000/svg">
<g clip-path="url(#clip0_103_7)">
<path fill-rule="evenodd" clip-rule="evenodd" d="M69.4472 54.8641L80.1364 75.0399C81.428 76.376 85.0266 79.0483 89.0885 79.0483C93.1504 79.0483 96.1256 76.376 97.1054 75.0399L89.0885 60.8767L78.3994 28.9428C78.1767 27.5622 76.2615 24.8008 70.3825 24.8008C65.5165 24.8008 62.8474 29.2859 60.9356 32.4983C60.5375 33.1672 60.1723 33.7809 59.8269 34.2874L52.2109 47.9161V55.933L55.8185 61.812L62.6328 60.8767L69.4472 54.8641ZM9.72105 76.3753C7.89499 74.9946 5.15143 70.4963 8.78575 63.5483C12.4201 56.6003 18.2278 44.8868 20.6774 39.8985L27.4918 27.0715L37.2456 30.011L52.6113 60.6088L59.5593 71.6988L59.1585 75.0392C58.6685 76.2417 56.887 78.62 53.6803 78.5131C50.4735 78.4063 49.2264 78.2014 49.0037 78.1123C47.9348 77.7115 44.9953 75.1995 41.7885 68.3584L34.0389 54.8634L22.0136 69.6946L15.6001 75.1728L9.72105 76.3753Z" fill="#DEFDEF"/>
<path fill-rule="evenodd" clip-rule="evenodd" d="M31.8272 24.1382C30.5142 24.4324 29.4793 25.0418 28.0864 26.3411L26.884 27.4626L27.9528 27.4142C30.1176 27.3165 30.0639 27.248 34.9163 36.274C35.3181 37.0218 36.1104 38.4706 36.6763 39.4936C37.2425 40.5164 37.7055 41.3982 37.7055 41.4532C37.7055 41.5078 38.0818 42.2004 38.5416 42.9923C39.0017 43.7842 39.9217 45.472 40.5862 46.7433C41.2507 48.0146 42.0769 49.5113 42.4221 50.069C42.7671 50.627 43.0495 51.1369 43.0495 51.2022C43.0495 51.2672 43.7108 52.5091 44.5191 53.9617C45.3274 55.4141 45.9887 56.6378 45.9887 56.681C45.9887 56.724 46.65 57.9477 47.4583 59.4003C48.2666 60.8527 48.9279 62.0756 48.9279 62.118C48.9279 62.1602 49.3909 63.0317 49.9571 64.0544C51.1625 66.2326 52.1022 67.9578 53.4152 70.4013C56.0677 75.3388 56.1508 75.438 57.6065 75.4062C58.2592 75.3921 58.9753 75.2267 59.1979 75.0386C59.5421 74.7479 61.316 71.7428 63.6275 67.5341C63.9524 66.9424 64.6693 65.6629 65.2206 64.6908C65.7715 63.7186 66.5539 62.3114 66.9587 61.5636C67.3638 60.8158 68.222 59.2742 68.8659 58.1378C69.5096 57.0014 70.0365 55.9952 70.0365 55.9022C70.0365 55.809 70.5477 54.842 71.1721 53.7534C71.7968 52.6646 72.4881 51.4132 72.7085 50.9721C72.929 50.5313 73.5416 49.7052 74.0699 49.1366C74.9062 48.2368 75.1865 48.103 76.2369 48.103C77.9277 48.103 78.7218 49.0243 81.1694 53.8266C84.1227 59.6214 86.8874 65.0133 88.4828 68.0899C89.2585 69.5855 90.3623 71.7433 90.936 72.8846C92.3583 75.7149 92.9213 76.213 94.6519 76.1728C96.7334 76.1247 97.4746 75.2733 98.257 72.0329C98.5482 70.8261 98.557 70.1172 98.3021 68.3618C98.0208 66.4238 97.6464 65.5038 94.8721 59.932C93.1593 56.492 91.185 52.5762 90.4844 51.2302C86.1347 42.871 84.8166 40.3195 82.1967 35.1862C78.4966 27.9363 78.546 28.0023 76.8298 27.9887C76.0298 27.9822 75.5868 28.147 75.1598 28.6093C74.8402 28.9555 74.5789 29.3286 74.5789 29.4381C74.5789 29.548 74.1869 30.2743 73.7081 31.0523C73.229 31.8303 72.658 32.834 72.4392 33.2827C72.2204 33.7314 71.974 34.1597 71.8914 34.2345C71.7421 34.3702 70.9627 35.7491 69.4324 38.5854C68.9889 39.408 68.4921 40.2645 68.3291 40.4889C68.0272 40.9044 67.8244 41.2574 66.6239 43.4587C66.2503 44.1437 65.4827 45.481 64.9178 46.4311C64.3532 47.3813 63.891 48.2131 63.891 48.2797C63.891 48.3464 63.4947 49.0376 63.0106 49.8156C62.5261 50.5936 61.9335 51.6585 61.6935 52.1822C61.4536 52.7057 60.85 53.6134 60.3527 54.1991C59.6529 55.0228 59.2551 55.2637 58.5956 55.2637C56.7677 55.2637 56.4011 54.7762 52.6013 47.2872C51.5769 45.2681 50.4712 43.1266 50.1444 42.5284C48.5199 39.5551 46.7991 36.3436 45.1906 33.2827C41.8752 26.9736 41.0081 25.8941 38.2843 24.6862C36.994 24.114 33.3243 23.8026 31.8272 24.1382ZM130.166 25.0832C128.544 25.4631 126.882 27.1586 126.46 28.8636C126.051 30.518 126.017 74.3957 126.424 75.8865C127.352 79.2902 131.446 80.0421 133.581 77.2007L134.468 76.0211L134.383 57.7108C134.327 45.6186 134.389 39.408 134.565 39.4216C134.712 39.433 136.756 42.3889 139.107 45.9903C148.427 60.2651 150.27 62.8871 151.363 63.4339C152.258 63.8812 152.512 63.9019 153.411 63.6003C154.602 63.2003 154.826 62.9104 160.216 54.8115C167.922 43.2321 170.421 39.5651 170.659 39.4841C170.806 39.4341 170.874 46.7392 170.829 57.8245C170.755 75.9131 170.763 76.2639 171.294 77.1341C172.581 79.2456 175.338 79.7745 177.206 78.2688C177.851 77.7489 178.349 77.0568 178.528 76.4333C178.724 75.7461 178.788 68.0978 178.733 52.046L178.653 28.6599L178.037 27.5675C176.63 25.0698 173.928 24.2715 171.218 25.5531C170.438 25.9226 168.925 28.0921 155.693 47.827C154.087 50.2221 152.644 52.1795 152.486 52.1762C152.329 52.1732 151.699 51.4083 151.087 50.4767C150.474 49.545 148.61 46.7452 146.945 44.2549C145.28 41.7645 142.263 37.2369 140.241 34.1934C138.22 31.15 136.116 28.0548 135.565 27.3155C133.983 25.189 132.439 24.5507 130.166 25.0832ZM235.833 25.1514C233.875 26.244 233.028 27.6355 233.028 29.7569C233.028 31.1573 233.304 31.8398 234.329 32.967C235.382 34.1241 236.306 34.5064 238.051 34.5064C239.366 34.5064 239.804 34.3759 240.696 33.7183C242.525 32.3707 243.202 29.4425 242.152 27.4318C241.029 25.2836 237.73 24.0931 235.833 25.1514ZM322.119 25.3896C319.68 26.6267 319.867 24.418 319.868 51.9519C319.869 75.7157 319.881 76.2672 320.4 77.1341C321.17 78.4195 322.421 79.1012 324.009 79.1012C325.724 79.1012 326.882 78.3904 327.645 76.8703C328.228 75.7094 328.23 75.6499 328.079 64.2149C327.956 54.8825 327.993 52.7258 328.275 52.7258C328.467 52.7258 328.8 53.0013 329.018 53.3376C329.235 53.674 330.12 54.7544 330.986 55.7383C332.399 57.3454 336.814 62.6382 345.009 72.5515C349.85 78.4078 350.621 79.1031 352.271 79.1031C354.823 79.1031 356.837 76.5946 356.205 74.204C355.826 72.772 356.001 72.9871 346.703 62.5031C344.508 60.0288 341.85 57.0307 340.796 55.8408C339.743 54.6511 338.45 53.2033 337.924 52.6236C337.398 52.0441 336.968 51.454 336.968 51.3126C336.968 50.9998 335.868 52.1613 346.731 40.9982C352.019 35.5626 356.017 31.2356 356.283 30.6583C356.534 30.1123 356.74 29.1494 356.74 28.5188C356.74 27.5537 356.58 27.2086 355.725 26.339C354.435 25.0258 353.217 24.7555 351.535 25.4089C350.496 25.813 349.139 27.1613 342.539 34.3424C338.264 38.9943 333.368 44.35 331.659 46.2443C329.949 48.1383 328.406 49.6984 328.228 49.7114C327.982 49.7291 327.887 47.1028 327.827 38.6534L327.749 27.5722L327.108 26.6566C326.494 25.7812 324.738 24.7354 323.861 24.7229C323.632 24.7196 322.848 25.0198 322.119 25.3896ZM199.761 39.2619C194.733 40.3282 190.807 42.865 188.014 46.8537C185.52 50.4155 184.397 54.2739 184.397 59.2853C184.397 67.1692 188.254 73.9158 194.622 77.1732C197.989 78.8954 199.4 79.1991 204.037 79.2013C207.658 79.2029 208.25 79.1339 210.182 78.4829C212.796 77.6021 214.328 76.6313 216.004 74.7949C216.708 74.0237 217.383 73.3926 217.503 73.3926C217.624 73.3926 217.79 74.0615 217.873 74.8795C218.161 77.7182 219.574 79.1031 222.181 79.1031C223.575 79.1031 223.786 79.0177 224.822 78.0347L225.947 76.9666V59.4754V41.9845L225.324 41.0967C224.508 39.9314 223.449 39.4012 221.939 39.4012C219.539 39.4012 217.797 41.1369 217.797 43.5272C217.797 44.9167 217.355 45.4968 216.922 44.6739C216.018 42.9537 212.992 40.8149 209.915 39.7207C207.377 38.8184 202.824 38.6128 199.761 39.2619ZM265.359 39.1347C260.267 39.9926 256.998 41.5016 253.945 44.4031C250.177 47.9847 248.507 51.3602 247.711 57.0087C247.187 60.7293 247.989 65.0255 249.921 68.8369C252.331 73.593 257.332 77.4987 262.687 78.8078C267.736 80.0418 273.97 79.4131 278.05 77.2581C282.696 74.805 286.09 70.6839 287.729 65.5066C288.39 63.4192 288.461 62.8128 288.457 59.2521C288.453 55.1512 288.303 54.2731 287.071 51.0942C284.88 45.4432 279.607 40.9675 273.508 39.5815C271.09 39.0319 267.225 38.8201 265.359 39.1347ZM373.039 39.2739C369.308 39.9282 367.679 40.5569 365.103 42.3372C357.73 47.4329 354.794 58.0603 358.208 67.2975C359.822 71.6647 363.11 75.307 367.225 77.2883C372.495 79.8259 377.784 80.1808 383.327 78.3689C386.757 77.2475 390.335 74.6823 392.317 71.9241C394.558 68.8054 391.331 64.7065 388.011 66.454C387.589 66.6761 386.784 67.428 386.223 68.1253C384.904 69.7639 382.831 71.3126 381.17 71.901C379.385 72.533 375.28 72.7497 373.646 72.2986C370.903 71.5415 368.389 69.7764 366.937 67.5896C365.876 65.9901 364.97 63.5408 365.071 62.5428L365.157 61.6946L379.051 61.6291C392.501 61.5657 392.976 61.5459 393.881 61.0077C394.395 60.7021 395.05 60.0119 395.337 59.4743C395.821 58.565 395.833 58.3385 395.516 56.2231C394.744 51.0852 393.156 47.6453 390.137 44.5736C386.962 41.3417 384.43 40.0655 379.639 39.2807C376.656 38.7923 375.791 38.7912 373.039 39.2739ZM235.497 39.9437C235.018 40.2409 234.387 40.8827 234.095 41.3702C233.578 42.2325 233.564 42.7875 233.553 61.8355C233.54 86.2397 233.614 85.7015 229.866 88.6207C227.4 90.5422 227.029 91.1018 227.055 92.8696C227.08 94.6494 227.859 95.8318 229.49 96.566C230.974 97.2344 232.042 97.0688 234.23 95.8304C237.082 94.2165 239.973 90.7461 240.875 87.8558C241.821 84.8216 241.884 83.1062 241.797 62.4672C241.712 42.3562 241.706 42.1526 241.153 41.3925C239.728 39.436 237.312 38.8171 235.497 39.9437ZM296.511 40.0174C295.893 40.3763 295.237 41.07 294.907 41.7126C294.359 42.781 294.35 43.0948 294.35 59.3881C294.35 75.6317 294.361 75.9958 294.898 76.9269C295.2 77.4498 295.862 78.1642 296.368 78.5144C298.112 79.721 301.118 78.9908 302.156 77.1088C302.393 76.6775 302.485 73.7545 302.5 66.1864C302.522 54.8485 302.705 52.8566 303.915 50.7557C305.18 48.559 308.103 47.0152 310.999 47.0152C313.863 47.0152 315.675 45.9262 316.115 43.9402C316.414 42.5885 316.179 41.6718 315.302 40.7799C314.376 39.8373 313.242 39.5972 310.865 39.8417C307.805 40.1563 305.265 41.6694 303.83 44.0322C302.875 45.605 302.499 45.4416 302.499 43.454C302.499 42.2257 302.359 41.5965 301.958 41.0232C300.798 39.3661 298.395 38.9223 296.511 40.0174ZM399.198 40.0152C398.698 40.3529 398.011 41.1791 397.671 41.8507C396.944 43.2873 396.991 44.6078 397.835 46.4714C398.14 47.1444 399.672 50.7543 401.239 54.4934C402.806 58.2324 404.242 61.6587 404.43 62.1074C404.618 62.5561 405.087 63.6302 405.472 64.4942C405.857 65.3584 406.172 66.1244 406.172 66.1967C406.172 66.3235 406.579 67.2779 407.94 70.3407C408.29 71.1301 408.577 71.8301 408.577 71.8964C408.577 71.9625 408.865 72.663 409.216 73.4524C409.568 74.2421 410.236 75.8057 410.702 76.9271L411.549 78.9658L410.842 80.8701C409.951 83.2756 409.838 83.5655 409.154 85.2216C406.511 91.6182 406.211 93.1312 407.283 94.6636C408.946 97.0405 412.913 96.8847 414.153 94.3935C414.431 93.8358 415.647 90.871 416.857 87.8049C418.067 84.7389 419.263 81.7409 419.517 81.1426C419.77 80.5444 420.314 79.1983 420.725 78.1514C421.137 77.1044 421.628 75.8807 421.817 75.4321C422.006 74.9834 422.537 73.6373 422.997 72.4408C423.457 71.2443 423.998 69.8983 424.199 69.4496C424.401 69.0009 424.94 67.6548 425.397 66.4583C425.854 65.2618 426.332 64.0381 426.46 63.739C426.588 63.4399 428.357 59.0346 430.393 53.9495C433.512 46.1589 434.092 44.4871 434.081 43.3268C434.057 40.859 432.492 39.3933 429.899 39.4107C427.639 39.4262 426.775 40.18 425.702 43.0722C425.369 43.9696 424.986 44.9869 424.851 45.3328C424.715 45.6787 424.176 47.1471 423.652 48.596C423.128 50.0448 422.546 51.5973 422.357 52.046C422.002 52.8917 421.272 54.8569 420.31 57.5526C420.003 58.4127 419.467 59.8504 419.119 60.7478C418.771 61.6451 417.922 64.1233 417.233 66.2544C416.544 68.3855 415.899 70.1294 415.799 70.1294C415.7 70.1294 415.243 68.9362 414.784 67.4781C413.572 63.6253 412.095 59.4803 409.498 52.6461C405.376 41.7958 405.13 41.2272 404.155 40.2849C403.337 39.4942 403.076 39.4012 401.673 39.4012C400.492 39.4012 399.882 39.5526 399.198 40.0152ZM379.987 46.2348C383.765 47.5553 386.767 51.0583 387.356 54.8333L387.537 55.989H376.28C363.573 55.989 364.678 56.2163 365.413 53.751C365.997 51.7931 367.037 50.1824 368.774 48.5457C371.776 45.7165 376.008 44.8444 379.987 46.2348ZM207.528 46.7661C211.994 47.5964 215.859 51.0752 217.15 55.4272C218.099 58.6283 217.787 62.5765 216.356 65.4495C215.981 66.203 214.994 67.5675 214.162 68.4815C209.449 73.6623 201.375 73.6716 196.404 68.5016C193.845 65.8397 192.5 61.8956 192.82 57.9896C193.255 52.6804 197.076 48.1655 202.202 46.9027C204.152 46.4224 205.494 46.3882 207.528 46.7661ZM271.742 47.0095C273.534 47.5558 276.236 49.1681 277.297 50.3238C278.275 51.3895 279.748 54.0827 280.18 55.5936C281.371 59.7637 280.052 64.9532 277.015 68.044C275.205 69.8863 272.344 71.3678 269.838 71.7602C266.524 72.2793 262.506 70.9724 259.934 68.5386C255.791 64.619 254.653 58.7961 257.006 53.5603C258.253 50.7856 261.592 47.8593 264.614 46.8918C266.377 46.3275 269.685 46.3822 271.742 47.0095ZM27.8972 48.516C27.1066 48.8546 26.7908 49.331 24.4787 53.6776C23.9218 54.7245 23.0628 56.2914 22.5698 57.1594C22.0768 58.0274 21.6736 58.7812 21.6736 58.8345C21.6736 58.8878 21.2103 59.7685 20.6441 60.7913C19.6042 62.67 18.3927 64.895 17.1879 67.1382C16.8264 67.8112 16.3211 68.729 16.0649 69.1776C15.5142 70.1422 13.9914 72.9648 13.4899 73.9503C12.894 75.1218 11.8966 75.8767 10.7348 76.0355C10.1154 76.12 9.67189 76.3153 9.72559 76.4798C9.7785 76.6413 10.7404 77.2583 11.8632 77.8506C13.6491 78.7931 14.1811 78.9422 16.1188 79.0441C18.0587 79.1461 18.5234 79.0748 19.8626 78.4703C21.7386 77.6235 23.3869 75.9354 24.5826 73.6368C25.8449 71.2101 26.9997 69.0515 27.5501 68.0899C27.8069 67.6412 28.6796 65.9892 29.4895 64.4188C31.5271 60.4671 32.8276 57.9844 33.6586 56.4591L34.3656 55.1618L33.0763 52.6521C32.3672 51.2718 31.4892 49.7917 31.125 49.3628C30.3079 48.4005 28.9807 48.0524 27.8972 48.516Z" fill="#6900FF"/>
</g>
<defs>
<clipPath id="clip0_103_7">
<rect width="105" height="105" rx="26" fill="white"/>
</clipPath>
</defs>
</svg>
